<svg width="146" height="146" viewBox="0 0 146 146" fill="none" xmlns="http://www.w3.org/2000/svg">
<g clip-path="url(#clip0_930_78)">
<rect width="146" height="146" rx="73" fill="url(#paint0_linear_930_78)"/>
<rect width="146" height="146" rx="73" fill="white"/>
<rect x="0.5" y="0.5" width="145" height="145" rx="72.5" stroke="black" stroke-opacity="0.1"/>
<path fill-rule="evenodd" clip-rule="evenodd" d="M16.3837 77.2052C18.434 105.206 40.794 127.566 68.7949 129.616V135.94C37.3087 133.867 12.133 108.691 10.0605 77.2052H16.3837Z" fill="url(#paint1_linear_930_78)"/>
<path fill-rule="evenodd" clip-rule="evenodd" d="M68.7646 16.3535C40.7638 18.4037 18.4037 40.7637 16.3535 68.7646L10.0303 68.7646C12.1027 37.2784 37.2785 12.1027 68.7646 10.0303L68.7646 16.3535Z" fill="#29ABE2"/>
<path fill-rule="evenodd" clip-rule="evenodd" d="M129.616 68.7344C127.566 40.7335 105.206 18.3734 77.2051 16.3232L77.2051 10C108.691 12.0725 133.867 37.2482 135.939 68.7344L129.616 68.7344Z" fill="url(#paint2_linear_930_78)"/>
<path fill-rule="evenodd" clip-rule="evenodd" d="M77.2354 129.586C105.236 127.536 127.596 105.176 129.647 77.1749L135.97 77.1749C133.897 108.661 108.722 133.837 77.2354 135.909L77.2354 129.586Z" fill="#29ABE2"/>
<path d="M89.5966 81.1294C89.5966 72.5272 84.4341 69.5772 74.1091 68.3441C66.7341 67.3588 65.2591 65.3941 65.2591 61.9544C65.2591 58.5147 67.7194 56.3022 72.6341 56.3022C77.0591 56.3022 79.5194 57.7772 80.7466 61.4647C80.9944 62.2022 81.7319 62.6919 82.4694 62.6919H86.4047C87.39 62.6919 88.1275 61.9544 88.1275 60.9691V60.7213C87.1422 55.311 82.7172 51.1338 77.065 50.6441V44.7441C77.065 43.7588 76.3275 43.0213 75.1003 42.7794H71.4128C70.4275 42.7794 69.69 43.5169 69.4481 44.7441V50.3963C62.0731 51.3816 57.4003 56.2963 57.4003 62.4441C57.4003 70.5566 62.315 73.7544 72.64 74.9816C79.5253 76.2088 81.7378 77.6838 81.7378 81.6191C81.7378 85.5544 78.2981 88.2566 73.6253 88.2566C67.2356 88.2566 65.0231 85.5544 64.2856 81.8669C64.0378 80.8816 63.3003 80.3919 62.5628 80.3919H58.3856C57.4003 80.3919 56.6628 81.1294 56.6628 82.1147V82.3625C57.6481 88.5103 61.5775 92.9353 69.69 94.1625V100.063C69.69 101.048 70.4275 101.785 71.6547 102.027H75.3422C76.3275 102.027 77.065 101.29 77.3069 100.063V94.1625C84.676 92.9294 89.5966 87.7669 89.5966 81.1294Z" fill="#2775CA"/>
<path d="M60.8341 106.942C41.6591 100.057 31.8238 78.6691 38.9569 59.7419C42.6444 49.4169 50.7569 41.5522 60.8341 37.8647C61.8194 37.375 62.3091 36.6375 62.3091 35.4044V31.9647C62.3091 30.9794 61.8194 30.2419 60.8341 30C60.5863 30 60.0966 30 59.8488 30.2478C36.4966 37.6228 23.7113 62.45 31.0863 85.8081C35.5113 99.5728 46.0841 110.146 59.8488 114.571C60.8341 115.06 61.8135 114.571 62.0613 113.585C62.3091 113.337 62.3091 113.096 62.3091 112.6V109.16C62.3091 108.417 61.5716 107.438 60.8341 106.942ZM86.8885 30.2419C85.9032 29.7522 84.9238 30.2419 84.676 31.2272C84.4282 31.475 84.4282 31.7169 84.4282 32.2125V35.6522C84.4282 36.6375 85.1657 37.6169 85.9032 38.1125C105.078 44.9978 114.914 66.3853 107.78 85.3125C104.093 95.6375 95.9804 103.502 85.9032 107.19C84.9179 107.679 84.4282 108.417 84.4282 109.65V113.09C84.4282 114.075 84.9179 114.812 85.9032 115.054C86.151 115.054 86.6407 115.054 86.8885 114.807C110.241 107.432 123.026 82.6044 115.651 59.2463C111.226 45.2397 100.411 34.6669 86.8885 30.2419Z" fill="#2775CA"/>
<g filter="url(#filter0_b_930_78)">
<path d="M21 112C21 102.209 28.9368 94.2727 38.7273 94.2727H107.273C117.063 94.2727 125 102.209 125 112C125 121.79 117.063 129.727 107.273 129.727H38.7273C28.9368 129.727 21 121.79 21 112Z" fill="white"/>
<path d="M21.5 112C21.5 102.486 29.2129 94.7727 38.7273 94.7727H107.273C116.787 94.7727 124.5 102.486 124.5 112C124.5 121.514 116.787 129.227 107.273 129.227H38.7273C29.2129 129.227 21.5 121.514 21.5 112Z" stroke="black" stroke-opacity="0.05"/>
</g>
<path d="M53.9723 106.682C52.585 106.682 51.0725 107.399 49.474 108.811C48.7157 109.48 48.0607 110.197 47.5696 110.77C47.5696 110.77 47.5696 110.77 47.5739 110.775V110.77C47.5739 110.77 48.3494 111.622 49.2069 112.534C49.6679 111.983 50.3315 111.231 51.0941 110.553C52.516 109.297 53.4423 109.032 53.9723 109.032C55.9674 109.032 57.5874 110.627 57.5874 112.586C57.5874 114.533 55.9631 116.128 53.9723 116.141C53.8819 116.141 53.7655 116.128 53.619 116.097C54.2007 116.349 54.8255 116.532 55.4202 116.532C59.0739 116.532 59.7892 114.129 59.8366 113.955C59.9443 113.516 60.0003 113.056 60.0003 112.582C60.0003 109.332 57.2944 106.682 53.9723 106.682Z" fill="url(#paint3_linear_930_78)"/>
<path d="M41.2103 118.5C42.5978 118.5 44.1102 117.783 45.7087 116.371C46.4671 115.702 47.122 114.985 47.6131 114.411C47.6131 114.411 47.6131 114.411 47.6088 114.407V114.411C47.6088 114.411 46.8333 113.56 45.9758 112.647C45.5148 113.199 44.8513 113.951 44.0886 114.629C42.6667 115.884 41.7403 116.149 41.2103 116.149C39.2154 116.145 37.5953 114.55 37.5953 112.591C37.5953 110.644 39.2197 109.05 41.2103 109.037C41.3008 109.037 41.4172 109.05 41.5637 109.08C40.982 108.828 40.3572 108.646 39.7626 108.646C36.1088 108.646 35.3978 111.048 35.3461 111.218C35.2384 111.661 35.1824 112.117 35.1824 112.591C35.1824 115.85 37.8883 118.5 41.2103 118.5Z" fill="url(#paint4_linear_930_78)"/>
<path d="M55.4117 116.479C53.5416 116.432 51.5984 114.946 51.202 114.576C50.1765 113.621 47.8109 111.035 47.6258 110.831C45.8936 108.872 43.5453 106.682 41.2099 106.682H41.2056H41.2013C38.3662 106.695 35.9834 108.633 35.3457 111.218C35.3931 111.048 36.3281 108.598 39.7579 108.685C41.6279 108.733 43.5798 110.24 43.9805 110.61C45.006 111.565 47.3715 114.151 47.5568 114.355C49.2889 116.31 51.6372 118.5 53.9725 118.5H53.9768H53.9811C56.8163 118.487 59.2033 116.549 59.8368 113.964C59.7851 114.133 58.8457 116.562 55.4117 116.479Z" fill="#29ABE2"/>
<path d="M79.8431 109.028H76.1369V118.591H73.8371V109.028H70.1309V106.86H79.8431V109.028ZM89.1605 118.591H81.8143V106.86H89.1605V109.011H84.0976V111.691H88.6807V113.726H84.0976V116.44H89.1605V118.591ZM99.6354 109.656L97.5838 110.285C97.468 109.64 96.9385 108.63 95.4494 108.63C94.3409 108.63 93.6129 109.342 93.6129 110.12C93.6129 110.765 94.0265 111.278 94.8869 111.443L96.5249 111.758C98.6593 112.171 99.8009 113.561 99.8009 115.216C99.8009 117.019 98.2953 118.839 95.5653 118.839C92.4547 118.839 91.0814 116.837 90.8994 115.166L93.0173 114.603C93.1165 115.762 93.9273 116.804 95.5818 116.804C96.8062 116.804 97.4845 116.192 97.4845 115.364C97.4845 114.686 96.9716 114.157 96.0616 113.975L94.4236 113.644C92.554 113.263 91.3462 112.055 91.3462 110.285C91.3462 108.2 93.2158 106.612 95.4329 106.612C98.2787 106.612 99.3707 108.333 99.6354 109.656ZM110.776 109.028H107.07V118.591H104.77V109.028H101.064V106.86H110.776V109.028Z" fill="#2775CA"/>
</g>
<defs>
<filter id="filter0_b_930_78" x="-26.2727" y="47" width="198.545" height="130" filterUnits="userSpaceOnUse" color-interpolation-filters="sRGB">
<feFlood flood-opacity="0" result="BackgroundImageFix"/>
<feGaussianBlur in="BackgroundImageFix" stdDeviation="23.6364"/>
<feComposite in2="SourceAlpha" operator="in" result="effect1_backgroundBlur_930_78"/>
<feBlend mode="normal" in="SourceGraphic" in2="effect1_backgroundBlur_930_78" result="shape"/>
</filter>
<linearGradient id="paint0_linear_930_78" x1="15" y1="-75.5" x2="92" y2="125.5" gradientUnits="userSpaceOnUse">
<stop stop-color="#D9D9D9"/>
<stop offset="0.588542" stop-color="white"/>
</linearGradient>
<linearGradient id="paint1_linear_930_78" x1="53.4736" y1="122.79" x2="14.0362" y2="89.5786" gradientUnits="userSpaceOnUse">
<stop offset="0.21" stop-color="#ED1E79"/>
<stop offset="1" stop-color="#522785"/>
</linearGradient>
<linearGradient id="paint2_linear_930_78" x1="120.65" y1="55.6022" x2="81.213" y2="22.3915" gradientUnits="userSpaceOnUse">
<stop offset="0.21" stop-color="#F15A24"/>
<stop offset="0.6841" stop-color="#FBB03B"/>
</linearGradient>
<linearGradient id="paint3_linear_930_78" x1="50.8345" y1="107.461" x2="59.101" y2="115.95" gradientUnits="userSpaceOnUse">
<stop offset="0.21" stop-color="#F15A24"/>
<stop offset="0.6841" stop-color="#FBB03B"/>
</linearGradient>
<linearGradient id="paint4_linear_930_78" x1="44.3482" y1="117.721" x2="36.0817" y2="109.232" gradientUnits="userSpaceOnUse">
<stop offset="0.21" stop-color="#ED1E79"/>
<stop offset="0.8929" stop-color="#522785"/>
</linearGradient>
<clipPath id="clip0_930_78">
<rect width="146" height="146" rx="73" fill="white"/>
</clipPath>
</defs>
</svg>
